<svg width="24" height="25" viewBox="0 0 24 25" fill="none" xmlns="http://www.w3.org/2000/svg">
<path d="M17.0502 20.78C16.0702 21.73 15.0002 21.58 13.9702 21.13C12.8802 20.67 11.8802 20.65 10.7302 21.13C9.29016 21.75 8.53016 21.57 7.67016 20.78C2.79016 15.75 3.51016 8.09 9.05016 7.81C10.4002 7.88 11.3402 8.55 12.1302 8.61C13.3102 8.37 14.4402 7.68 15.7002 7.77C17.2102 7.89 18.3502 8.49 19.1002 9.57C15.9802 11.44 16.7202 15.55 19.5802 16.7C19.0102 18.2 18.2702 19.69 17.0402 20.79L17.0502 20.78ZM12.0302 7.75C11.8802 5.52 13.6902 3.68 15.7702 3.5C16.0602 6.08 13.4302 8 12.0302 7.75Z" fill="white"/>
</svg>
