<svg width="24" height="25" viewBox="0 0 24 25" fill="none" xmlns="http://www.w3.org/2000/svg">
<path d="M18 7.76294C20.412 9.10838 22 11.3996 22 14C22 16.0586 21.0047 17.9235 19.3933 19.2787C19.1517 19.4819 19 19.7762 19 20.0919V22.5H17L16.2062 21.3674C16.083 21.1916 15.8616 21.1152 15.6537 21.1687C13.9248 21.6132 12.0752 21.6132 10.3463 21.1687C10.1384 21.1152 9.91703 21.1916 9.79384 21.3674L9 22.5H7V20.1154C7 19.7866 6.83835 19.4788 6.56764 19.2921C5.49285 18.5511 2 17.1014 2 15.5582V14C2 13.4082 2.44771 12.9286 3 12.9286C3.60665 12.9286 4.10188 12.6929 4.30205 12.0661C4.87123 10.2838 6.20828 8.76239 8 7.76294" stroke="black" stroke-width="1.5" stroke-linecap="round" stroke-linejoin="round"/>
<path d="M13.5 2.5L11 6.5H15L12.5 10.5" stroke="black" stroke-width="1.5" stroke-linecap="round" stroke-linejoin="round"/>
<path d="M7.5 12.5H7.50898" stroke="black" stroke-width="2" stroke-linecap="round" stroke-linejoin="round"/>
</svg>
