<svg width="24" height="25" viewBox="0 0 24 25" fill="none" xmlns="http://www.w3.org/2000/svg">
<path d="M9 13.5C9 13.5 10 13.5 11 15.5C11 15.5 14.1765 10.5 17 9.5" stroke="black" stroke-width="1.5" stroke-linecap="round" stroke-linejoin="round"/>
<path d="M21 11.6833V8.78029C21 7.14029 21 6.32028 20.5959 5.78529C20.1918 5.25029 19.2781 4.99056 17.4507 4.4711C16.2022 4.1162 15.1016 3.68863 14.2223 3.29829C13.0234 2.7661 12.424 2.5 12 2.5C11.576 2.5 10.9766 2.7661 9.77771 3.29829C8.89839 3.68863 7.79784 4.11619 6.54933 4.4711C4.72193 4.99056 3.80822 5.25029 3.40411 5.78529C3 6.32028 3 7.14029 3 8.78029V11.6833C3 17.3085 8.06277 20.6835 10.594 22.0194C11.2011 22.3398 11.5046 22.5 12 22.5C12.4954 22.5 12.7989 22.3398 13.406 22.0194C15.9372 20.6835 21 17.3085 21 11.6833Z" stroke="black" stroke-width="1.5" stroke-linecap="round"/>
</svg>
