<svg width="13" height="12" viewBox="0 0 13 12" fill="none" xmlns="http://www.w3.org/2000/svg">
<path d="M9.48812 4.95255L6.19646 1.66089C6.04841 1.50301 5.96759 1.29373 5.97111 1.07733C5.97462 0.860927 6.06219 0.654381 6.21528 0.501395C6.36838 0.34841 6.57499 0.260987 6.79139 0.257626C7.00779 0.254265 7.21702 0.335229 7.37479 0.483387L12.089 5.19672C12.1666 5.27393 12.2282 5.36573 12.2703 5.46684C12.3123 5.56795 12.334 5.67638 12.334 5.78589C12.334 5.89539 12.3123 6.00382 12.2703 6.10493C12.2282 6.20604 12.1666 6.29784 12.089 6.37505L7.37479 11.0892C7.29792 11.1688 7.20596 11.2323 7.10429 11.276C7.00262 11.3196 6.89327 11.3426 6.78262 11.3436C6.67197 11.3446 6.56224 11.3235 6.45983 11.2816C6.35741 11.2397 6.26437 11.1778 6.18613 11.0996C6.10788 11.0213 6.046 10.9283 6.0041 10.8258C5.9622 10.7234 5.94112 10.6137 5.94208 10.5031C5.94304 10.3924 5.96603 10.2831 6.0097 10.1814C6.05338 10.0797 6.11686 9.98776 6.19646 9.91089L9.48812 6.61922H1.49979C1.27877 6.61922 1.06681 6.53142 0.910533 6.37514C0.754252 6.21886 0.666455 6.0069 0.666455 5.78589C0.666455 5.56487 0.754252 5.35291 0.910533 5.19663C1.06681 5.04035 1.27877 4.95255 1.49979 4.95255H9.48812Z" fill="#1E1E1E"/>
</svg>
