<svg width="13" height="12" viewBox="0 0 13 12" fill="none" xmlns="http://www.w3.org/2000/svg">
<path d="M3.51188 7.04745L6.80354 10.3391C6.95159 10.497 7.03241 10.7063 7.02889 10.9227C7.02538 11.1391 6.93781 11.3456 6.78472 11.4986C6.63162 11.6516 6.42501 11.739 6.20861 11.7424C5.99221 11.7457 5.78298 11.6648 5.62521 11.5166L0.911045 6.80328C0.83339 6.72607 0.771766 6.63427 0.729715 6.53316C0.687664 6.43205 0.666016 6.32362 0.666016 6.21411C0.666016 6.10461 0.687664 5.99618 0.729715 5.89507C0.771766 5.79396 0.83339 5.70216 0.911045 5.62495L5.62521 0.910779C5.70208 0.831187 5.79404 0.767702 5.89571 0.724028C5.99738 0.680354 6.10673 0.657365 6.21738 0.656404C6.32803 0.655442 6.43776 0.676527 6.54017 0.718428C6.64259 0.760328 6.73563 0.822206 6.81387 0.90045C6.89212 0.978694 6.954 1.07174 6.9959 1.17415C7.0378 1.27656 7.05888 1.3863 7.05792 1.49695C7.05696 1.6076 7.03397 1.71695 6.9903 1.81862C6.94662 1.92029 6.88314 2.01224 6.80354 2.08911L3.51188 5.38078H11.5002C11.7212 5.38078 11.9332 5.46858 12.0895 5.62486C12.2457 5.78114 12.3335 5.9931 12.3335 6.21411C12.3335 6.43513 12.2457 6.64709 12.0895 6.80337C11.9332 6.95965 11.7212 7.04745 11.5002 7.04745H3.51188Z" fill="#1E1E1E"/>
</svg>
