<svg width="25" height="25" viewBox="0 0 25 25" fill="none" xmlns="http://www.w3.org/2000/svg">
<path fill-rule="evenodd" clip-rule="evenodd" d="M12.5 0.5C9.3174 0.5 6.26515 1.76428 4.01472 4.01472C1.76428 6.26515 0.5 9.3174 0.5 12.5C0.5 15.6826 1.76428 18.7348 4.01472 20.9853C6.26515 23.2357 9.3174 24.5 12.5 24.5C15.6826 24.5 18.7348 23.2357 20.9853 20.9853C23.2357 18.7348 24.5 15.6826 24.5 12.5C24.5 9.3174 23.2357 6.26515 20.9853 4.01472C18.7348 1.76428 15.6826 0.5 12.5 0.5ZM6.23086 14.5966C6.23086 14.4829 6.27601 14.3739 6.35638 14.2935C6.43676 14.2132 6.54576 14.168 6.65943 14.168H18.2857C18.3994 14.168 18.5084 14.2132 18.5888 14.2935C18.6691 14.3739 18.7143 14.4829 18.7143 14.5966C18.7143 15.5429 18.2514 16.8886 17.2537 17.996C16.2423 19.1206 14.6754 20.0069 12.4709 20.0069C10.2697 20.0069 8.70286 19.1206 7.68971 17.996C6.69371 16.8886 6.23257 15.5446 6.23257 14.5966H6.23086ZM8.35486 10.7446C7.88906 10.7441 7.44252 10.5586 7.11348 10.229C6.95055 10.0657 6.82137 9.87197 6.73332 9.6588C6.64527 9.44563 6.60006 9.21721 6.60029 8.98657C6.60051 8.75593 6.64616 8.5276 6.73463 8.3146C6.8231 8.1016 6.95266 7.90812 7.1159 7.74519C7.44559 7.41615 7.89249 7.23155 8.35829 7.232H8.36343C8.82922 7.23268 9.27567 7.41837 9.60456 7.74822C9.93344 8.07807 10.1178 8.52506 10.1171 8.99086C10.1165 9.45665 9.93077 9.9031 9.60092 10.232C9.27107 10.5609 8.82408 10.7453 8.35829 10.7446H8.35486ZM16.6366 10.7446C16.1708 10.7439 15.7243 10.5582 15.3954 10.2283C15.0666 9.8985 14.8822 9.45151 14.8829 8.98571C14.8835 8.51992 15.0692 8.07347 15.3991 7.74459C15.7289 7.4157 16.1759 7.23132 16.6417 7.232H16.6451C17.1109 7.23245 17.5575 7.41793 17.8865 7.74762C18.2156 8.07731 18.4002 8.5242 18.3997 8.99C18.3993 9.4558 18.2138 9.90233 17.8841 10.2314C17.5544 10.5604 17.1075 10.745 16.6417 10.7446H16.6366Z" fill="#F3A108"/>
</svg>
