<svg width="24" height="25" viewBox="0 0 24 25" fill="none" xmlns="http://www.w3.org/2000/svg">
<path d="M3.63683 3.93383L12.3768 12.5048L3.70183 21.1548C3.55991 20.97 3.44974 20.7628 3.37583 20.5418C3.33761 20.2916 3.33761 20.0371 3.37583 19.7868V5.06683C3.34983 4.67183 3.44083 4.27683 3.63583 3.93383M16.1418 8.76683L13.2888 11.5928L4.65283 3.09983C4.93283 3.00283 5.23283 2.97583 5.52583 3.02183C5.98583 3.14783 6.42483 3.34183 6.82783 3.59483L14.6438 7.91983C15.1518 8.19283 15.6468 8.47983 16.1418 8.76683ZM13.2898 13.4298L16.1288 16.2178L14.0708 17.3638L7.79183 20.8538C7.27183 21.1408 6.74983 21.4148 6.24183 21.7278C6.02446 21.8632 5.78072 21.9506 5.52688 21.9842C5.27304 22.0178 5.01495 21.9969 4.76983 21.9228L13.2898 13.4298ZM20.6498 12.5048C20.6571 12.8545 20.5688 13.1995 20.3943 13.5027C20.2198 13.8058 19.9659 14.0555 19.6598 14.2248L17.3138 15.5268L14.2268 12.5048L17.3268 9.43083C18.1218 9.87383 18.9038 10.3168 19.6848 10.7338C19.9963 10.9079 20.2521 11.1666 20.4227 11.48C20.5933 11.7934 20.6727 12.1487 20.6498 12.5048Z" fill="white"/>
</svg>
