<svg width="24" height="25" viewBox="0 0 24 25" fill="none" xmlns="http://www.w3.org/2000/svg">
<path d="M13.9258 13.2775L11.7775 11.1292C11.4847 10.8364 11.3383 10.69 11.1803 10.6117C10.8798 10.4628 10.527 10.4628 10.2264 10.6117C10.0685 10.69 9.92207 10.8364 9.62923 11.1292C9.33638 11.4221 9.18996 11.5685 9.11169 11.7264C8.96277 12.027 8.96277 12.3798 9.11169 12.6803C9.18996 12.8383 9.33638 12.9847 9.62923 13.2775L11.7775 15.4258M13.9258 13.2775L20.3708 19.7225C20.6636 20.0153 20.81 20.1617 20.8883 20.3197C21.0372 20.6202 21.0372 20.973 20.8883 21.2736C20.81 21.4315 20.6636 21.5779 20.3708 21.8708C20.0779 22.1636 19.9315 22.31 19.7736 22.3883C19.473 22.5372 19.1202 22.5372 18.8197 22.3883C18.6617 22.31 18.5153 22.1636 18.2225 21.8708L11.7775 15.4258M13.9258 13.2775L11.7775 15.4258" stroke="black" stroke-width="1.5" stroke-linecap="round" stroke-linejoin="round"/>
<path d="M17 2.5L17.2948 3.2966C17.6813 4.34117 17.8746 4.86345 18.2556 5.24445C18.6366 5.62545 19.1588 5.81871 20.2034 6.20523L21 6.5L20.2034 6.79477C19.1588 7.18129 18.6366 7.37456 18.2556 7.75555C17.8746 8.13655 17.6813 8.65883 17.2948 9.7034L17 10.5L16.7052 9.7034C16.3187 8.65884 16.1254 8.13655 15.7444 7.75555C15.3634 7.37455 14.8412 7.18129 13.7966 6.79477L13 6.5L13.7966 6.20523C14.8412 5.81871 15.3634 5.62545 15.7444 5.24445C16.1254 4.86345 16.3187 4.34117 16.7052 3.2966L17 2.5Z" stroke="black" stroke-width="1.5" stroke-linejoin="round"/>
<path d="M6 4.5L6.22108 5.09745C6.51097 5.88087 6.65592 6.27259 6.94167 6.55834C7.22741 6.84408 7.61913 6.98903 8.40255 7.27892L9 7.5L8.40255 7.72108C7.61913 8.01097 7.22741 8.15592 6.94166 8.44167C6.65592 8.72741 6.51097 9.11913 6.22108 9.90255L6 10.5L5.77892 9.90255C5.48903 9.11913 5.34408 8.72741 5.05833 8.44167C4.77259 8.15592 4.38087 8.01097 3.59745 7.72108L3 7.5L3.59745 7.27892C4.38087 6.98903 4.77259 6.84408 5.05833 6.55833C5.34408 6.27259 5.48903 5.88087 5.77892 5.09745L6 4.5Z" stroke="black" stroke-width="1.5" stroke-linejoin="round"/>
</svg>
