<svg width="24" height="25" viewBox="0 0 24 25" fill="none" xmlns="http://www.w3.org/2000/svg">
<path d="M15.7078 8.83055C16.6507 9.76482 15.1422 17.3628 13.5942 17.4967C12.2957 17.609 11.891 15.0478 11.6175 14.2361C11.3476 13.4349 11.0472 13.1465 10.2527 12.8836C8.23415 12.2159 7.22489 11.882 7.02507 11.3533C6.49595 9.95337 14.5036 7.63731 15.7078 8.83055Z" stroke="black" stroke-width="1.5"/>
<path d="M22 12.5C22 18.0228 17.5228 22.5 12 22.5C6.47715 22.5 2 18.0228 2 12.5C2 6.97715 6.47715 2.5 12 2.5C17.5228 2.5 22 6.97715 22 12.5Z" stroke="black" stroke-width="1.5"/>
</svg>
