<svg width="19" height="17" viewBox="0 0 19 17" fill="none" xmlns="http://www.w3.org/2000/svg">
<path d="M9.5 13.6275L4.9625 16.3675C4.82917 16.4333 4.70542 16.46 4.59125 16.4475C4.47792 16.4341 4.3675 16.395 4.26 16.33C4.15167 16.2633 4.07 16.1691 4.015 16.0475C3.96 15.9258 3.955 15.7929 4 15.6487L5.2075 10.5112L1.21375 7.04871C1.10125 6.95704 1.02708 6.84746 0.99125 6.71996C0.955417 6.59246 0.963334 6.47037 1.015 6.35371C1.06667 6.23704 1.13542 6.14121 1.22125 6.06621C1.30792 5.99371 1.42458 5.94454 1.57125 5.91871L6.84125 5.45871L8.89625 0.593706C8.95292 0.456207 9.03458 0.357039 9.14125 0.296206C9.24792 0.235373 9.3675 0.204956 9.5 0.204956C9.6325 0.204956 9.7525 0.235373 9.86 0.296206C9.9675 0.357039 10.0488 0.456207 10.1038 0.593706L12.1588 5.45871L17.4275 5.91871C17.575 5.94371 17.6921 5.99329 17.7788 6.06746C17.8654 6.14079 17.9346 6.23621 17.9863 6.35371C18.0371 6.47037 18.0446 6.59246 18.0088 6.71996C17.9729 6.84746 17.8988 6.95704 17.7863 7.04871L13.7925 10.5112L15 15.6487C15.0467 15.7912 15.0421 15.9237 14.9863 16.0462C14.9304 16.1687 14.8483 16.2629 14.74 16.3287C14.6333 16.3954 14.5229 16.435 14.4088 16.4475C14.2954 16.46 14.1721 16.4333 14.0388 16.3675L9.5 13.6275Z" fill="#F3A108"/>
</svg>
